<svg xmlns="http://www.w3.org/2000/svg" width="900" height="350" viewBox="0 0 900 350"><rect width="900" height="350" fill="white"/><text x="30" y="38" font-family="Arial" font-weight="bold" font-size="23" fill="#19324e">Surface relaxation versus reconstruction</text><g font-family="Arial" font-size="18" fill="#334155"><text x="124" y="83">Ideal termination</text><text x="546" y="83">Reconstructed surface</text></g><circle cx="110" cy="140" r="12" fill="#e87927"/><circle cx="145" cy="140" r="12" fill="#e87927"/><circle cx="180" cy="140" r="12" fill="#e87927"/><circle cx="215" cy="140" r="12" fill="#e87927"/><circle cx="250" cy="140" r="12" fill="#e87927"/><circle cx="285" cy="140" r="12" fill="#e87927"/><circle cx="320" cy="140" r="12" fill="#e87927"/><circle cx="110" cy="182" r="12" fill="#2563eb"/><circle cx="145" cy="182" r="12" fill="#2563eb"/><circle cx="180" cy="182" r="12" fill="#2563eb"/><circle cx="215" cy="182" r="12" fill="#2563eb"/><circle cx="250" cy="182" r="12" fill="#2563eb"/><circle cx="285" cy="182" r="12" fill="#2563eb"/><circle cx="320" cy="182" r="12" fill="#2563eb"/><circle cx="110" cy="224" r="12" fill="#2563eb"/><circle cx="145" cy="224" r="12" fill="#2563eb"/><circle cx="180" cy="224" r="12" fill="#2563eb"/><circle cx="215" cy="224" r="12" fill="#2563eb"/><circle cx="250" cy="224" r="12" fill="#2563eb"/><circle cx="285" cy="224" r="12" fill="#2563eb"/><circle cx="320" cy="224" r="12" fill="#2563eb"/><circle cx="530" cy="152" r="12" fill="#e87927"/><circle cx="585" cy="128" r="12" fill="#e87927"/><circle cx="600" cy="152" r="12" fill="#e87927"/><circle cx="655" cy="128" r="12" fill="#e87927"/><circle cx="670" cy="152" r="12" fill="#e87927"/><circle cx="725" cy="128" r="12" fill="#e87927"/><circle cx="740" cy="152" r="12" fill="#e87927"/><circle cx="540" cy="182" r="12" fill="#2563eb"/><circle cx="575" cy="182" r="12" fill="#2563eb"/><circle cx="610" cy="182" r="12" fill="#2563eb"/><circle cx="645" cy="182" r="12" fill="#2563eb"/><circle cx="680" cy="182" r="12" fill="#2563eb"/><circle cx="715" cy="182" r="12" fill="#2563eb"/><circle cx="750" cy="182" r="12" fill="#2563eb"/><circle cx="540" cy="224" r="12" fill="#2563eb"/><circle cx="575" cy="224" r="12" fill="#2563eb"/><circle cx="610" cy="224" r="12" fill="#2563eb"/><circle cx="645" cy="224" r="12" fill="#2563eb"/><circle cx="680" cy="224" r="12" fill="#2563eb"/><circle cx="715" cy="224" r="12" fill="#2563eb"/><circle cx="750" cy="224" r="12" fill="#2563eb"/><text x="30" y="331" font-family="Arial" font-size="14" fill="#64748b">Conceptual schematic; not simulation or experimental data.</text></svg>